PathFileType	4	(X/Y/Z)	D:\TRACE\v60_Jaco2_6-2-23\JustBodyDRS_Motion2_6-v60.trc
DataRate	CameraRate	NumFrames	NumMarkers	Units	OrigDataRate	OrigDataStartFrame	OrigNumFrames
100.00	100.00	      24	9	mm	100.00	3371	      6741
Frame#	Time	front left toe			Front right toe			aft left toe			aft right toe			Arm			FL body			FR body			AL Body			AR Body			
		X1	Y1	Z1	X2	Y2	Z2	X3	Y3	Z3	X4	Y4	Z4	X5	Y5	Z5	X6	Y6	Z6	X7	Y7	Z7	X8	Y8	Z8	X9	Y9	Z9	

3371	33.700	-296.29269	-17.72688	-381.04395	140.00349	-6.29903	-335.18488	-203.68480	40.11973	294.78741	78.87078	38.00494	253.09746	-217.29756	1166.97571	-549.32117	-165.19145	539.54950	-508.99075	-5.34739	545.60858	-508.87747	-168.34334	584.34229	436.13681	-10.51586	585.63379	438.61026	
3372	33.710	-295.23215	-17.86146	-380.79657	134.53369	2.84750	-334.07318	-202.19820	50.30321	293.90714	79.65927	38.22668	254.07275	-217.07562	1167.47083	-551.24884	-165.21266	539.43744	-510.78287	-5.48663	545.83679	-510.68240	-170.80324	585.53235	434.10559	-12.83378	586.75623	436.83914	
3373	33.720	-294.63641	-17.84451	-380.83231	132.62054	12.90317	-333.37146	-202.04402	61.34150	292.94019	80.67390	38.46889	253.28026	-216.49434	1168.26819	-552.65881	-166.56236	539.30487	-512.62793	-6.23335	545.20483	-511.38879	-172.46295	587.19690	432.46866	-17.48314	586.93372	432.87891	
3374	33.730	-293.73224	-18.06753	-380.75528	131.96796	25.67379	-335.45435	-204.36035	75.00742	290.46838	81.50240	38.18857	253.81125	-216.08597	1168.82385	-553.64899	-167.01349	538.98474	-514.01947	-6.89461	544.88763	-512.86981	-174.25476	588.01819	431.06070	-19.24426	588.12524	431.39560	
3375	33.740	-292.81213	-18.10837	-380.72794	132.98212	39.58191	-338.50931	-210.43469	88.23493	287.02023	82.33102	38.03444	253.58209	-216.27623	1168.72034	-555.38385	-166.41983	538.32294	-514.83173	-6.67712	544.58850	-513.61780	-175.49144	588.77972	430.09790	-17.48438	589.54413	433.21866	
3376	33.750	-291.92078	-18.21399	-380.74707	132.65089	53.90298	-342.54196	-218.09769	101.40618	282.73065	83.12431	37.53117	253.58034	-216.96219	1168.01147	-557.24402	-166.96298	537.78217	-515.38391	-7.92827	544.54150	-514.40198	-176.43324	588.86688	429.30426	-18.64908	590.01886	432.36407	
3377	33.760	-291.28204	-17.93196	-380.73685	131.78580	68.00739	-346.14597	-225.37093	114.22494	277.82645	83.79478	37.61847	253.74384	-218.10590	1167.29663	-558.80780	-168.37306	538.50555	-516.60858	-7.80664	544.40021	-515.16724	-176.97324	589.15656	428.67380	-22.30823	589.04089	429.05264	
3378	33.770	-290.69806	-17.67377	-380.56656	129.77054	81.41132	-349.68304	-234.65257	126.90091	272.75323	84.82174	37.55410	253.87311	-219.04497	1166.29932	-559.85956	-167.69040	538.05634	-516.63715	-8.47334	544.17749	-515.47571	-177.46332	589.37103	428.16895	-23.15178	589.08502	428.23825	
3379	33.780	-289.69861	-17.39482	-380.43021	126.23831	93.84084	-353.10483	-242.29091	140.38042	267.54849	86.05614	37.46771	253.95041	-220.36389	1165.98242	-560.39374	-167.92648	537.99255	-517.03833	-8.26567	544.07178	-515.95215	-177.85825	589.71991	427.52744	-20.35033	590.05231	430.58411	
3380	33.790	-288.71472	-17.36918	-380.41006	121.92436	105.06759	-356.23737	-248.05122	151.89336	263.48541	86.87180	37.23964	253.88144	-220.49231	1165.91345	-560.59094	-169.03209	538.06250	-517.78888	-9.10640	543.99597	-516.17316	-178.77335	589.99237	427.16046	-21.06775	590.35370	430.00754	
3381	33.800	-287.92413	-16.95802	-380.41547	117.81944	113.82214	-358.90128	-254.67796	163.42604	259.57275	87.57909	37.03436	253.89592	-220.34572	1166.17542	-560.57275	-169.62857	537.84631	-518.19519	-8.91198	543.65540	-516.60626	-179.32050	590.38074	426.92383	-21.84125	590.71692	429.68790	
3382	33.810	-287.03793	-16.43563	-380.08374	114.91412	120.01414	-360.55875	-258.45822	169.44563	257.52875	88.68932	36.87073	254.36104	-219.88335	1166.95984	-560.75659	-168.85762	537.03723	-517.87573	-9.11549	543.13306	-516.52234	-179.59258	590.85352	426.90295	-22.57805	591.11987	429.50659	
3383	33.820	-286.13980	-16.28591	-379.80582	112.19958	123.22176	-361.58578	-262.92325	173.93063	255.29239	89.91689	36.68211	254.31438	-218.74176	1167.12183	-561.12701	-169.14842	536.68634	-517.53644	-9.47384	542.81116	-516.49884	-180.01205	591.35986	426.99789	-22.79664	591.31042	429.51993	
3384	33.830	-285.05563	-15.88083	-379.73627	109.93215	124.00246	-362.35669	-269.35837	175.38666	254.37549	90.51572	36.46352	254.29964	-218.32814	1166.32532	-561.41034	-169.65666	536.61572	-517.25262	-10.06299	542.43829	-515.91071	-180.11307	591.70300	427.29135	-22.97899	591.38654	429.57825	
3385	33.840	-284.51273	-15.45231	-379.47546	106.67823	122.01842	-362.65518	-275.83777	173.96886	253.99425	91.67889	36.26256	254.61993	-217.43706	1165.62708	-561.88733	-170.08614	536.63812	-516.98792	-10.61505	542.16089	-515.39740	-180.32312	591.70416	427.51816	-22.94537	591.44489	429.88409	
3386	33.850	-283.37332	-15.27056	-379.08020	102.83541	117.41105	-362.86887	-282.21448	170.82536	253.57808	93.08688	36.12426	254.92253	-217.03691	1165.30029	-562.05927	-171.50786	536.82800	-517.01306	-10.53239	541.93878	-515.31146	-180.24258	592.30902	428.02710	-23.25128	591.66187	430.42282	
3387	33.860	-282.24316	-14.88866	-378.96976	98.46964	111.82475	-362.85690	-288.39420	166.81259	253.10654	93.70361	35.76205	254.86113	-216.95334	1165.08521	-561.89240	-171.55363	536.72528	-516.34198	-10.87977	541.34753	-514.99896	-180.61761	592.85419	428.44897	-23.35336	591.79224	431.04025	
3388	33.870	-281.38925	-14.55907	-378.69180	93.91195	105.05327	-362.86945	-294.87372	162.80733	252.46011	94.52085	35.46608	255.05089	-216.53789	1165.13000	-561.54462	-171.62437	536.54633	-515.72479	-11.45225	540.78015	-514.07867	-180.73767	593.30511	429.01559	-23.50611	591.84583	431.54929	
3389	33.880	-280.83115	-14.12868	-378.51025	88.70869	97.29355	-363.47864	-300.78152	157.26256	252.12155	95.56075	35.22081	255.37209	-215.77748	1165.16028	-560.72925	-171.83583	536.19415	-515.17371	-11.85358	540.27924	-513.33063	-180.99084	593.53082	429.61304	-23.90790	591.91028	432.15100	
3390	33.890	-279.74594	-13.81600	-378.30731	84.22043	88.94102	-363.68387	-306.38828	149.79092	251.85440	96.80427	35.25444	255.48990	-214.81363	1165.11304	-559.96912	-171.25740	535.56989	-513.95599	-11.40822	539.78516	-512.93176	-181.28867	593.90247	430.32608	-24.18507	592.06641	432.96335	
3391	33.900	-278.62558	-13.76483	-378.15042	79.83052	79.59408	-363.43774	-312.04602	140.90657	251.86723	97.88612	35.09533	255.59358	-212.86903	1165.12878	-559.57172	-171.60228	535.36371	-513.12549	-11.76741	539.05908	-511.82034	-181.59074	594.52020	430.95227	-24.41305	592.06482	433.46936	
3392	33.910	-277.84402	-13.08080	-377.87524	75.42970	69.89033	-362.93085	-318.49634	132.11929	252.03444	98.39143	34.72685	255.68167	-210.66513	1165.25671	-559.12811	-171.95726	535.39264	-512.20026	-12.67549	538.65332	-511.08694	-181.55243	594.78717	431.79889	-24.59741	591.91064	434.43604	
3393	33.920	-277.03851	-12.53274	-377.91260	71.45111	60.19753	-361.71069	-324.99478	121.96310	252.80859	99.73958	34.48611	255.96001	-208.92125	1165.23804	-558.72485	-172.27914	535.35657	-511.35861	-12.18890	538.10535	-509.98044	-182.16624	594.62598	432.82330	-24.79120	591.50507	435.47916	
3394	33.930	-275.92130	-12.22574	-377.74261	67.79225	50.71021	-359.77090	-331.36157	111.91968	254.20990	100.78938	34.46943	256.36496	-206.96294	1164.89905	-557.99695	-171.93405	535.23743	-510.25339	-12.84067	537.66150	-508.98889	-182.48920	594.84619	433.73129	-24.73754	591.08832	436.65683	
